<?xml version="1.0" encoding="UTF-8" standalone="no"?>
<!DOCTYPE svg PUBLIC "-//W3C//DTD SVG 1.1//EN"
 "http://www.w3.org/Graphics/SVG/1.1/DTD/svg11.dtd">
<!-- Generated by graphviz version 2.47.0 (20210316.0004)
 -->
<!-- Title: dependencies Pages: 1 -->
<svg width="2474pt" height="363pt"
 viewBox="0.00 0.00 2474.00 363.00" xmlns="http://www.w3.org/2000/svg" xmlns:xlink="http://www.w3.org/1999/xlink">
<g id="graph0" class="graph" transform="scale(1 1) rotate(0) translate(4 359)">
<title>dependencies</title>
<polygon fill="white" stroke="transparent" points="-4,4 -4,-359 2470,-359 2470,4 -4,4"/>
<text text-anchor="start" x="1212.01" y="-42.4" font-family="Times-12" font-weight="bold" font-size="14.00">Legend</text>
<polygon fill="#ffffb3" stroke="transparent" points="999,-10 999,-30 1019,-30 1019,-10 999,-10"/>
<text text-anchor="start" x="1022.63" y="-15.4" font-family="Times-12" font-size="14.00"> &#160;Declarations</text>
<polygon fill="#8dd3c7" stroke="transparent" points="1112,-10 1112,-30 1132,-30 1132,-10 1112,-10"/>
<text text-anchor="start" x="1135.73" y="-15.4" font-family="Times-12" font-size="14.00"> &#160;Module</text>
<polygon fill="#80b1d3" stroke="transparent" points="1198,-10 1198,-30 1218,-30 1218,-10 1198,-10"/>
<text text-anchor="start" x="1221.78" y="-15.4" font-family="Times-12" font-size="14.00"> &#160;Bootstrap</text>
<polygon fill="#fdb462" stroke="transparent" points="1295,-10 1295,-30 1315,-30 1315,-10 1295,-10"/>
<text text-anchor="start" x="1318.67" y="-15.4" font-family="Times-12" font-size="14.00"> &#160;Providers</text>
<polygon fill="#fb8072" stroke="transparent" points="1391,-10 1391,-30 1411,-30 1411,-10 1391,-10"/>
<text text-anchor="start" x="1414.73" y="-15.4" font-family="Times-12" font-size="14.00"> &#160;Exports</text>
<g id="clust1" class="cluster">
<title>cluster_AppModule</title>
<polygon fill="none" stroke="black" stroke-dasharray="1,5" points="560,-146 560,-347 1688,-347 1688,-146 560,-146"/>
</g>
<g id="clust3" class="cluster">
<title>cluster_AppModule_imports</title>
<polygon fill="none" stroke="black" points="706,-154 706,-282 1680,-282 1680,-154 706,-154"/>
</g>
<g id="clust6" class="cluster">
<title>cluster_AppModule_providers</title>
<polygon fill="none" stroke="black" points="568,-230 568,-282 698,-282 698,-230 568,-230"/>
</g>
<g id="clust7" class="cluster">
<title>cluster_AuthModule</title>
<polygon fill="none" stroke="black" stroke-dasharray="1,5" points="8,-146 8,-214 552,-214 552,-146 8,-146"/>
</g>
<g id="clust10" class="cluster">
<title>cluster_AuthModule_exports</title>
<polygon fill="none" stroke="black" points="438,-154 438,-206 544,-206 544,-154 438,-154"/>
</g>
<g id="clust12" class="cluster">
<title>cluster_AuthModule_providers</title>
<polygon fill="none" stroke="black" points="16,-154 16,-206 430,-206 430,-154 16,-154"/>
</g>
<g id="clust13" class="cluster">
<title>cluster_CompaniesModule</title>
<polygon fill="none" stroke="black" stroke-dasharray="1,5" points="1696,-222 1696,-290 2042,-290 2042,-222 1696,-222"/>
</g>
<g id="clust16" class="cluster">
<title>cluster_CompaniesModule_exports</title>
<polygon fill="none" stroke="black" points="1894,-230 1894,-282 2034,-282 2034,-230 1894,-230"/>
</g>
<g id="clust18" class="cluster">
<title>cluster_CompaniesModule_providers</title>
<polygon fill="none" stroke="black" points="1704,-230 1704,-282 1886,-282 1886,-230 1704,-230"/>
</g>
<g id="clust19" class="cluster">
<title>cluster_DatabasesModule</title>
<polygon fill="none" stroke="black" stroke-dasharray="1,5" points="587,-70 587,-138 919,-138 919,-70 587,-70"/>
</g>
<g id="clust24" class="cluster">
<title>cluster_DatabasesModule_providers</title>
<polygon fill="none" stroke="black" points="595,-78 595,-130 911,-130 911,-78 595,-78"/>
</g>
<g id="clust25" class="cluster">
<title>cluster_FilesModule</title>
<polygon fill="none" stroke="black" stroke-dasharray="1,5" points="927,-70 927,-138 1077,-138 1077,-70 927,-70"/>
</g>
<g id="clust30" class="cluster">
<title>cluster_FilesModule_providers</title>
<polygon fill="none" stroke="black" points="935,-78 935,-130 1069,-130 1069,-78 935,-78"/>
</g>
<g id="clust31" class="cluster">
<title>cluster_JobsModule</title>
<polygon fill="none" stroke="black" stroke-dasharray="1,5" points="1085,-70 1085,-138 1231,-138 1231,-70 1085,-70"/>
</g>
<g id="clust36" class="cluster">
<title>cluster_JobsModule_providers</title>
<polygon fill="none" stroke="black" points="1093,-78 1093,-130 1223,-130 1223,-78 1093,-78"/>
</g>
<g id="clust37" class="cluster">
<title>cluster_PermissionsModule</title>
<polygon fill="none" stroke="black" stroke-dasharray="1,5" points="1239,-70 1239,-138 1445,-138 1445,-70 1239,-70"/>
</g>
<g id="clust42" class="cluster">
<title>cluster_PermissionsModule_providers</title>
<polygon fill="none" stroke="black" points="1247,-78 1247,-130 1437,-130 1437,-78 1247,-78"/>
</g>
<g id="clust43" class="cluster">
<title>cluster_ResumesModule</title>
<polygon fill="none" stroke="black" stroke-dasharray="1,5" points="1453,-70 1453,-138 1635,-138 1635,-70 1453,-70"/>
</g>
<g id="clust48" class="cluster">
<title>cluster_ResumesModule_providers</title>
<polygon fill="none" stroke="black" points="1461,-78 1461,-130 1627,-130 1627,-78 1461,-78"/>
</g>
<g id="clust49" class="cluster">
<title>cluster_RolesModule</title>
<polygon fill="none" stroke="black" stroke-dasharray="1,5" points="2050,-222 2050,-290 2324,-290 2324,-222 2050,-222"/>
</g>
<g id="clust52" class="cluster">
<title>cluster_RolesModule_exports</title>
<polygon fill="none" stroke="black" points="2206,-230 2206,-282 2316,-282 2316,-230 2206,-230"/>
</g>
<g id="clust54" class="cluster">
<title>cluster_RolesModule_providers</title>
<polygon fill="none" stroke="black" points="2058,-230 2058,-282 2198,-282 2198,-230 2058,-230"/>
</g>
<g id="clust55" class="cluster">
<title>cluster_UsersModule</title>
<polygon fill="none" stroke="black" stroke-dasharray="1,5" points="2332,-222 2332,-290 2458,-290 2458,-222 2332,-222"/>
</g>
<g id="clust58" class="cluster">
<title>cluster_UsersModule_exports</title>
<polygon fill="none" stroke="black" points="2340,-230 2340,-282 2450,-282 2450,-230 2340,-230"/>
</g>
<!-- AuthModule -->
<g id="node1" class="node">
<title>AuthModule</title>
<polygon fill="#8dd3c7" stroke="black" points="801.55,-274 798.55,-278 777.55,-278 774.55,-274 714.45,-274 714.45,-238 801.55,-238 801.55,-274"/>
<text text-anchor="middle" x="758" y="-251.8" font-family="Times,serif" font-size="14.00">AuthModule</text>
</g>
<!-- AppModule -->
<g id="node10" class="node">
<title>AppModule</title>
<polygon fill="#8dd3c7" stroke="black" points="1095.66,-339 1092.66,-343 1071.66,-343 1068.66,-339 1012.34,-339 1012.34,-303 1095.66,-303 1095.66,-339"/>
<text text-anchor="middle" x="1054" y="-316.8" font-family="Times,serif" font-size="14.00">AppModule</text>
</g>
<!-- AuthModule&#45;&gt;AppModule -->
<g id="edge1" class="edge">
<title>AuthModule&#45;&gt;AppModule</title>
<path fill="none" stroke="black" d="M801.8,-265C877.14,-265 1023.24,-265 1023.24,-265 1023.24,-265 1023.24,-292.97 1023.24,-292.97"/>
<polygon fill="black" stroke="black" points="1019.74,-292.97 1023.24,-302.97 1026.74,-292.97 1019.74,-292.97"/>
</g>
<!-- AuthService  -->
<g id="node12" class="node">
<title>AuthService </title>
<polygon fill="#fb8072" stroke="black" points="535.98,-198 446.02,-198 446.02,-162 535.98,-162 535.98,-198"/>
<text text-anchor="middle" x="491" y="-175.8" font-family="Times,serif" font-size="14.00">AuthService </text>
</g>
<!-- AuthModule&#45;&gt;AuthService  -->
<g id="edge13" class="edge">
<title>AuthModule&#45;&gt;AuthService </title>
<path fill="none" stroke="black" stroke-dasharray="5,2" d="M714.37,-256C707.13,-256 701.92,-256 701.92,-256 701.92,-256 701.92,-180 701.92,-180 701.92,-180 545.99,-180 545.99,-180"/>
<polygon fill="black" stroke="black" points="545.99,-176.5 535.99,-180 545.99,-183.5 545.99,-176.5"/>
</g>
<!-- CompaniesModule -->
<g id="node2" class="node">
<title>CompaniesModule</title>
<polygon fill="#8dd3c7" stroke="black" points="1562.04,-198 1559.04,-202 1538.04,-202 1535.04,-198 1439.96,-198 1439.96,-162 1562.04,-162 1562.04,-198"/>
<text text-anchor="middle" x="1501" y="-175.8" font-family="Times,serif" font-size="14.00">CompaniesModule</text>
</g>
<!-- CompaniesModule&#45;&gt;AppModule -->
<g id="edge2" class="edge">
<title>CompaniesModule&#45;&gt;AppModule</title>
<path fill="none" stroke="black" d="M1501,-198.07C1501,-236.94 1501,-325 1501,-325 1501,-325 1106.05,-325 1106.05,-325"/>
<polygon fill="black" stroke="black" points="1106.05,-321.5 1096.05,-325 1106.05,-328.5 1106.05,-321.5"/>
</g>
<!-- CompaniesService  -->
<g id="node16" class="node">
<title>CompaniesService </title>
<polygon fill="#fb8072" stroke="black" points="2026.47,-274 1901.53,-274 1901.53,-238 2026.47,-238 2026.47,-274"/>
<text text-anchor="middle" x="1964" y="-251.8" font-family="Times,serif" font-size="14.00">CompaniesService </text>
</g>
<!-- CompaniesModule&#45;&gt;CompaniesService  -->
<g id="edge17" class="edge">
<title>CompaniesModule&#45;&gt;CompaniesService </title>
<path fill="none" stroke="black" stroke-dasharray="5,2" d="M1470.36,-198.24C1470.36,-205.43 1470.36,-212 1470.36,-212 1470.36,-212 1964,-212 1964,-212 1964,-212 1964,-227.85 1964,-227.85"/>
<polygon fill="black" stroke="black" points="1960.5,-227.85 1964,-237.85 1967.5,-227.85 1960.5,-227.85"/>
</g>
<!-- DatabasesModule -->
<g id="node3" class="node">
<title>DatabasesModule</title>
<polygon fill="#8dd3c7" stroke="black" points="940.29,-198 937.29,-202 916.29,-202 913.29,-198 823.71,-198 823.71,-162 940.29,-162 940.29,-198"/>
<text text-anchor="middle" x="882" y="-175.8" font-family="Times,serif" font-size="14.00">DatabasesModule</text>
</g>
<!-- DatabasesModule&#45;&gt;AppModule -->
<g id="edge3" class="edge">
<title>DatabasesModule&#45;&gt;AppModule</title>
<path fill="none" stroke="black" d="M882,-198.08C882,-234.23 882,-312 882,-312 882,-312 1001.92,-312 1001.92,-312"/>
<polygon fill="black" stroke="black" points="1001.92,-315.5 1011.92,-312 1001.92,-308.5 1001.92,-315.5"/>
</g>
<!-- FilesModule -->
<g id="node4" class="node">
<title>FilesModule</title>
<polygon fill="#8dd3c7" stroke="black" points="1045.27,-198 1042.27,-202 1021.27,-202 1018.27,-198 958.73,-198 958.73,-162 1045.27,-162 1045.27,-198"/>
<text text-anchor="middle" x="1002" y="-175.8" font-family="Times,serif" font-size="14.00">FilesModule</text>
</g>
<!-- FilesModule&#45;&gt;AppModule -->
<g id="edge4" class="edge">
<title>FilesModule&#45;&gt;AppModule</title>
<path fill="none" stroke="black" d="M1034.31,-198.14C1034.31,-198.14 1034.31,-292.93 1034.31,-292.93"/>
<polygon fill="black" stroke="black" points="1030.81,-292.92 1034.31,-302.93 1037.81,-292.93 1030.81,-292.92"/>
</g>
<!-- JobsModule -->
<g id="node5" class="node">
<title>JobsModule</title>
<polygon fill="#8dd3c7" stroke="black" points="1148.44,-198 1145.44,-202 1124.44,-202 1121.44,-198 1063.56,-198 1063.56,-162 1148.44,-162 1148.44,-198"/>
<text text-anchor="middle" x="1106" y="-175.8" font-family="Times,serif" font-size="14.00">JobsModule</text>
</g>
<!-- JobsModule&#45;&gt;AppModule -->
<g id="edge5" class="edge">
<title>JobsModule&#45;&gt;AppModule</title>
<path fill="none" stroke="black" d="M1079.8,-198.14C1079.8,-198.14 1079.8,-292.93 1079.8,-292.93"/>
<polygon fill="black" stroke="black" points="1076.3,-292.92 1079.8,-302.93 1083.3,-292.93 1076.3,-292.92"/>
</g>
<!-- PermissionsModule -->
<g id="node6" class="node">
<title>PermissionsModule</title>
<polygon fill="#8dd3c7" stroke="black" points="1293.71,-198 1290.71,-202 1269.71,-202 1266.71,-198 1166.29,-198 1166.29,-162 1293.71,-162 1293.71,-198"/>
<text text-anchor="middle" x="1230" y="-175.8" font-family="Times,serif" font-size="14.00">PermissionsModule</text>
</g>
<!-- PermissionsModule&#45;&gt;AppModule -->
<g id="edge6" class="edge">
<title>PermissionsModule&#45;&gt;AppModule</title>
<path fill="none" stroke="black" d="M1230,-198.21C1230,-234.21 1230,-311 1230,-311 1230,-311 1105.71,-311 1105.71,-311"/>
<polygon fill="black" stroke="black" points="1105.71,-307.5 1095.71,-311 1105.71,-314.5 1105.71,-307.5"/>
</g>
<!-- ResumesModule -->
<g id="node7" class="node">
<title>ResumesModule</title>
<polygon fill="#8dd3c7" stroke="black" points="1422.1,-198 1419.1,-202 1398.1,-202 1395.1,-198 1311.9,-198 1311.9,-162 1422.1,-162 1422.1,-198"/>
<text text-anchor="middle" x="1367" y="-175.8" font-family="Times,serif" font-size="14.00">ResumesModule</text>
</g>
<!-- ResumesModule&#45;&gt;AppModule -->
<g id="edge7" class="edge">
<title>ResumesModule&#45;&gt;AppModule</title>
<path fill="none" stroke="black" d="M1367,-198.04C1367,-235.45 1367,-318 1367,-318 1367,-318 1105.89,-318 1105.89,-318"/>
<polygon fill="black" stroke="black" points="1105.89,-314.5 1095.89,-318 1105.89,-321.5 1105.89,-314.5"/>
</g>
<!-- RolesModule -->
<g id="node8" class="node">
<title>RolesModule</title>
<polygon fill="#8dd3c7" stroke="black" points="1671.94,-198 1668.94,-202 1647.94,-202 1644.94,-198 1580.06,-198 1580.06,-162 1671.94,-162 1671.94,-198"/>
<text text-anchor="middle" x="1626" y="-175.8" font-family="Times,serif" font-size="14.00">RolesModule</text>
</g>
<!-- RolesModule&#45;&gt;AuthModule -->
<g id="edge11" class="edge">
<title>RolesModule&#45;&gt;AuthModule</title>
<path fill="none" stroke="black" d="M1610.76,-198.31C1610.76,-218.15 1610.76,-247 1610.76,-247 1610.76,-247 811.76,-247 811.76,-247"/>
<polygon fill="black" stroke="black" points="811.76,-243.5 801.76,-247 811.76,-250.5 811.76,-243.5"/>
</g>
<!-- RolesModule&#45;&gt;AppModule -->
<g id="edge8" class="edge">
<title>RolesModule&#45;&gt;AppModule</title>
<path fill="none" stroke="black" d="M1641.24,-198.03C1641.24,-238.3 1641.24,-332 1641.24,-332 1641.24,-332 1105.76,-332 1105.76,-332"/>
<polygon fill="black" stroke="black" points="1105.76,-328.5 1095.76,-332 1105.76,-335.5 1105.76,-328.5"/>
</g>
<!-- RolesService  -->
<g id="node24" class="node">
<title>RolesService </title>
<polygon fill="#fb8072" stroke="black" points="2307.86,-274 2214.14,-274 2214.14,-238 2307.86,-238 2307.86,-274"/>
<text text-anchor="middle" x="2261" y="-251.8" font-family="Times,serif" font-size="14.00">RolesService </text>
</g>
<!-- RolesModule&#45;&gt;RolesService  -->
<g id="edge25" class="edge">
<title>RolesModule&#45;&gt;RolesService </title>
<path fill="none" stroke="black" stroke-dasharray="5,2" d="M1671.92,-174C1817.79,-174 2261,-174 2261,-174 2261,-174 2261,-227.8 2261,-227.8"/>
<polygon fill="black" stroke="black" points="2257.5,-227.8 2261,-237.8 2264.5,-227.8 2257.5,-227.8"/>
</g>
<!-- UsersModule -->
<g id="node9" class="node">
<title>UsersModule</title>
<polygon fill="#8dd3c7" stroke="black" points="805.92,-198 802.92,-202 781.92,-202 778.92,-198 714.08,-198 714.08,-162 805.92,-162 805.92,-198"/>
<text text-anchor="middle" x="760" y="-175.8" font-family="Times,serif" font-size="14.00">UsersModule</text>
</g>
<!-- UsersModule&#45;&gt;AuthModule -->
<g id="edge12" class="edge">
<title>UsersModule&#45;&gt;AuthModule</title>
<path fill="none" stroke="black" d="M772.61,-198.01C772.61,-198.01 772.61,-227.85 772.61,-227.85"/>
<polygon fill="black" stroke="black" points="769.11,-227.85 772.61,-237.85 776.11,-227.85 769.11,-227.85"/>
</g>
<!-- UsersModule&#45;&gt;AppModule -->
<g id="edge9" class="edge">
<title>UsersModule&#45;&gt;AppModule</title>
<path fill="none" stroke="black" d="M805.74,-180C811.14,-180 814.78,-180 814.78,-180 814.78,-180 814.78,-321 814.78,-321 814.78,-321 1002.33,-321 1002.33,-321"/>
<polygon fill="black" stroke="black" points="1002.33,-324.5 1012.33,-321 1002.33,-317.5 1002.33,-324.5"/>
</g>
<!-- UsersService  -->
<g id="node26" class="node">
<title>UsersService </title>
<polygon fill="#fb8072" stroke="black" points="2441.85,-274 2348.15,-274 2348.15,-238 2441.85,-238 2441.85,-274"/>
<text text-anchor="middle" x="2395" y="-251.8" font-family="Times,serif" font-size="14.00">UsersService </text>
</g>
<!-- UsersModule&#45;&gt;UsersService  -->
<g id="edge27" class="edge">
<title>UsersModule&#45;&gt;UsersService </title>
<path fill="none" stroke="black" stroke-dasharray="5,2" d="M787.19,-198.17C787.19,-202.05 787.19,-205 787.19,-205 787.19,-205 2395,-205 2395,-205 2395,-205 2395,-227.88 2395,-227.88"/>
<polygon fill="black" stroke="black" points="2391.5,-227.88 2395,-237.88 2398.5,-227.88 2391.5,-227.88"/>
</g>
<!-- AppService -->
<g id="node11" class="node">
<title>AppService</title>
<ellipse fill="#fdb462" stroke="black" cx="633" cy="-256" rx="56.74" ry="18"/>
<text text-anchor="middle" x="633" y="-251.8" font-family="Times,serif" font-size="14.00">AppService</text>
</g>
<!-- AppService&#45;&gt;AppModule -->
<g id="edge10" class="edge">
<title>AppService&#45;&gt;AppModule</title>
<path fill="none" stroke="black" d="M633,-274.29C633,-296.21 633,-330 633,-330 633,-330 1002.09,-330 1002.09,-330"/>
<polygon fill="black" stroke="black" points="1002.09,-333.5 1012.09,-330 1002.09,-326.5 1002.09,-333.5"/>
</g>
<!-- AuthService -->
<g id="node13" class="node">
<title>AuthService</title>
<ellipse fill="#fdb462" stroke="black" cx="363" cy="-180" rx="59.11" ry="18"/>
<text text-anchor="middle" x="363" y="-175.8" font-family="Times,serif" font-size="14.00">AuthService</text>
</g>
<!-- AuthService&#45;&gt;AuthModule -->
<g id="edge14" class="edge">
<title>AuthService&#45;&gt;AuthModule</title>
<path fill="none" stroke="black" d="M363,-198.11C363,-207.9 363,-218 363,-218 363,-218 758.03,-218 758.03,-218 758.03,-218 758.03,-227.89 758.03,-227.89"/>
<polygon fill="black" stroke="black" points="754.53,-227.89 758.03,-237.89 761.53,-227.89 754.53,-227.89"/>
</g>
<!-- JwtStrategy -->
<g id="node14" class="node">
<title>JwtStrategy</title>
<ellipse fill="#fdb462" stroke="black" cx="229" cy="-180" rx="56.76" ry="18"/>
<text text-anchor="middle" x="229" y="-175.8" font-family="Times,serif" font-size="14.00">JwtStrategy</text>
</g>
<!-- JwtStrategy&#45;&gt;AuthModule -->
<g id="edge15" class="edge">
<title>JwtStrategy&#45;&gt;AuthModule</title>
<path fill="none" stroke="black" d="M229,-198.04C229,-210.56 229,-225 229,-225 229,-225 743.45,-225 743.45,-225 743.45,-225 743.45,-227.97 743.45,-227.97"/>
<polygon fill="black" stroke="black" points="739.95,-227.97 743.45,-237.97 746.95,-227.97 739.95,-227.97"/>
</g>
<!-- LocalStrategy -->
<g id="node15" class="node">
<title>LocalStrategy</title>
<ellipse fill="#fdb462" stroke="black" cx="89" cy="-180" rx="65.41" ry="18"/>
<text text-anchor="middle" x="89" y="-175.8" font-family="Times,serif" font-size="14.00">LocalStrategy</text>
</g>
<!-- LocalStrategy&#45;&gt;AuthModule -->
<g id="edge16" class="edge">
<title>LocalStrategy&#45;&gt;AuthModule</title>
<path fill="none" stroke="black" d="M89,-198.19C89,-213.18 89,-232 89,-232 89,-232 728.87,-232 728.87,-232 728.87,-232 728.87,-232.58 728.87,-232.58"/>
<polygon fill="black" stroke="black" points="725.37,-227.81 728.87,-237.81 732.37,-227.81 725.37,-227.81"/>
</g>
<!-- CompaniesService -->
<g id="node17" class="node">
<title>CompaniesService</title>
<ellipse fill="#fdb462" stroke="black" cx="1795" cy="-256" rx="83.38" ry="18"/>
<text text-anchor="middle" x="1795" y="-251.8" font-family="Times,serif" font-size="14.00">CompaniesService</text>
</g>
<!-- CompaniesService&#45;&gt;CompaniesModule -->
<g id="edge18" class="edge">
<title>CompaniesService&#45;&gt;CompaniesModule</title>
<path fill="none" stroke="black" d="M1711.31,-256C1634.19,-256 1531.64,-256 1531.64,-256 1531.64,-256 1531.64,-208.01 1531.64,-208.01"/>
<polygon fill="black" stroke="black" points="1535.14,-208.01 1531.64,-198.01 1528.14,-208.01 1535.14,-208.01"/>
</g>
<!-- DatabasesService -->
<g id="node18" class="node">
<title>DatabasesService</title>
<ellipse fill="#fdb462" stroke="black" cx="824" cy="-104" rx="79.27" ry="18"/>
<text text-anchor="middle" x="824" y="-99.8" font-family="Times,serif" font-size="14.00">DatabasesService</text>
</g>
<!-- DatabasesService&#45;&gt;DatabasesModule -->
<g id="edge19" class="edge">
<title>DatabasesService&#45;&gt;DatabasesModule</title>
<path fill="none" stroke="black" d="M876.71,-117.59C876.71,-117.59 876.71,-151.96 876.71,-151.96"/>
<polygon fill="black" stroke="black" points="873.21,-151.96 876.71,-161.96 880.21,-151.96 873.21,-151.96"/>
</g>
<!-- UsersService -->
<g id="node19" class="node">
<title>UsersService</title>
<ellipse fill="#fdb462" stroke="black" cx="665" cy="-104" rx="61.95" ry="18"/>
<text text-anchor="middle" x="665" y="-99.8" font-family="Times,serif" font-size="14.00">UsersService</text>
</g>
<!-- UsersService&#45;&gt;DatabasesModule -->
<g id="edge20" class="edge">
<title>UsersService&#45;&gt;DatabasesModule</title>
<path fill="none" stroke="black" d="M722.75,-110.62C722.75,-121.51 722.75,-142 722.75,-142 722.75,-142 850.28,-142 850.28,-142 850.28,-142 850.28,-151.89 850.28,-151.89"/>
<polygon fill="black" stroke="black" points="846.78,-151.89 850.28,-161.89 853.78,-151.89 846.78,-151.89"/>
</g>
<!-- UsersService&#45;&gt;UsersModule -->
<g id="edge28" class="edge">
<title>UsersService&#45;&gt;UsersModule</title>
<path fill="none" stroke="black" d="M718.52,-113.32C718.52,-113.32 718.52,-151.89 718.52,-151.89"/>
<polygon fill="black" stroke="black" points="715.02,-151.89 718.52,-161.89 722.02,-151.89 715.02,-151.89"/>
</g>
<!-- FilesService -->
<g id="node20" class="node">
<title>FilesService</title>
<ellipse fill="#fdb462" stroke="black" cx="1002" cy="-104" rx="58.54" ry="18"/>
<text text-anchor="middle" x="1002" y="-99.8" font-family="Times,serif" font-size="14.00">FilesService</text>
</g>
<!-- FilesService&#45;&gt;FilesModule -->
<g id="edge21" class="edge">
<title>FilesService&#45;&gt;FilesModule</title>
<path fill="none" stroke="black" d="M1002,-122.01C1002,-122.01 1002,-151.85 1002,-151.85"/>
<polygon fill="black" stroke="black" points="998.5,-151.85 1002,-161.85 1005.5,-151.85 998.5,-151.85"/>
</g>
<!-- JobsService -->
<g id="node21" class="node">
<title>JobsService</title>
<ellipse fill="#fdb462" stroke="black" cx="1158" cy="-104" rx="57.32" ry="18"/>
<text text-anchor="middle" x="1158" y="-99.8" font-family="Times,serif" font-size="14.00">JobsService</text>
</g>
<!-- JobsService&#45;&gt;JobsModule -->
<g id="edge22" class="edge">
<title>JobsService&#45;&gt;JobsModule</title>
<path fill="none" stroke="black" d="M1124.53,-118.65C1124.53,-118.65 1124.53,-151.9 1124.53,-151.9"/>
<polygon fill="black" stroke="black" points="1121.03,-151.9 1124.53,-161.9 1128.03,-151.9 1121.03,-151.9"/>
</g>
<!-- PermissionsService -->
<g id="node22" class="node">
<title>PermissionsService</title>
<ellipse fill="#fdb462" stroke="black" cx="1342" cy="-104" rx="86.83" ry="18"/>
<text text-anchor="middle" x="1342" y="-99.8" font-family="Times,serif" font-size="14.00">PermissionsService</text>
</g>
<!-- PermissionsService&#45;&gt;PermissionsModule -->
<g id="edge23" class="edge">
<title>PermissionsService&#45;&gt;PermissionsModule</title>
<path fill="none" stroke="black" d="M1274.47,-115.54C1274.47,-115.54 1274.47,-151.83 1274.47,-151.83"/>
<polygon fill="black" stroke="black" points="1270.97,-151.83 1274.47,-161.83 1277.97,-151.83 1270.97,-151.83"/>
</g>
<!-- ResumesService -->
<g id="node23" class="node">
<title>ResumesService</title>
<ellipse fill="#fdb462" stroke="black" cx="1544" cy="-104" rx="74.71" ry="18"/>
<text text-anchor="middle" x="1544" y="-99.8" font-family="Times,serif" font-size="14.00">ResumesService</text>
</g>
<!-- ResumesService&#45;&gt;ResumesModule -->
<g id="edge24" class="edge">
<title>ResumesService&#45;&gt;ResumesModule</title>
<path fill="none" stroke="black" d="M1468.94,-104C1449.64,-104 1434.2,-104 1434.2,-104 1434.2,-104 1434.2,-180 1434.2,-180 1434.2,-180 1432.18,-180 1432.18,-180"/>
<polygon fill="black" stroke="black" points="1432.18,-176.5 1422.18,-180 1432.18,-183.5 1432.18,-176.5"/>
</g>
<!-- RolesService -->
<g id="node25" class="node">
<title>RolesService</title>
<ellipse fill="#fdb462" stroke="black" cx="2128" cy="-256" rx="61.97" ry="18"/>
<text text-anchor="middle" x="2128" y="-251.8" font-family="Times,serif" font-size="14.00">RolesService</text>
</g>
<!-- RolesService&#45;&gt;RolesModule -->
<g id="edge26" class="edge">
<title>RolesService&#45;&gt;RolesModule</title>
<path fill="none" stroke="black" d="M2128,-237.97C2128,-217.23 2128,-186 2128,-186 2128,-186 1681.88,-186 1681.88,-186"/>
<polygon fill="black" stroke="black" points="1681.88,-182.5 1671.88,-186 1681.88,-189.5 1681.88,-182.5"/>
</g>
</g>
</svg>
